<mxfile host="app.diagrams.net" modified="2023-06-14T02:01:51.801Z" agent="Mozilla/5.0 (Windows NT 10.0; Win64; x64) AppleWebKit/537.36 (KHTML, like Gecko) Chrome/81.0.4044.138 Safari/537.36" version="21.3.8" etag="WQK01NDSCNIuwu_8eqRK" type="github">
  <diagram name="第 1 页" id="57VKWFimAm-giDpa9Vvo">
    <mxGraphModel>
      <root>
        <mxCell id="0" />
        <mxCell id="1" parent="0" />
      </root>
    </mxGraphModel>
  </diagram>
</mxfile>
